v 0.3902734644166457 0.6314757303333053 0.28355026945067996
v -0.14907119849998593 0.6314757303333053 0.4587939734903912
v -0.48240453183331927 0.6314757303333053 7.401486830834377e-17
v -0.14907119849998604 0.6314757303333053 -0.45879397349039114
v 0.3902734644166455 0.6314757303333053 -0.28355026945068
v 0.6314757303333053 0.14907119849998599 0.45879397349039114
v -0.24120226591665958 0.14907119849998599 0.7423442429410713
v -0.7805469288332912 0.14907119849998599 1.1102230246251565e-16
v -0.24120226591665972 0.14907119849998599 -0.742344242941071
v 0.6314757303333052 0.14907119849998599 -0.45879397349039125
v 0.7805469288332912 -0.14907119849998599 -7.401486830834377e-17
v 0.2412022659166597 -0.14907119849998599 0.742344242941071
v -0.6314757303333053 -0.14907119849998599 0.45879397349039125
v -0.6314757303333053 -0.14907119849998599 -0.45879397349039114
v 0.2412022659166595 -0.14907119849998599 -0.7423442429410713
v 0.48240453183331927 -0.6314757303333053 -7.401486830834377e-17
v 0.14907119849998599 -0.6314757303333053 0.4587939734903912
v -0.3902734644166456 -0.6314757303333053 0.28355026945068
v -0.3902734644166457 -0.6314757303333053 -0.2835502694506799
v 0.1490711984999859 -0.6314757303333053 -0.45879397349039125

vt 0.0 0.0 0.0

vn -0.0 -1.0 0.0
vn 0.0 -1.0 0.0
vn 0.0 -1.0 0.0
vn -0.8944271909999157 -0.44721359549995787 2.6265545344640327e-16
vn -0.8944271909999159 -0.4472135954999579 2.2433453923477555e-16
vn -0.894427190999916 -0.44721359549995787 -9.074522733310341e-17
vn -0.276393202250021 -0.44721359549995787 -0.85065080835204
vn -0.27639320225002134 -0.4472135954999578 -0.8506508083520399
vn -0.27639320225002106 -0.447213595499958 -0.8506508083520399
vn 0.7236067977499788 -0.447213595499958 -0.5257311121191336
vn 0.7236067977499789 -0.447213595499958 -0.5257311121191337
vn 0.7236067977499789 -0.447213595499958 -0.5257311121191337
vn 0.7236067977499789 -0.44721359549995787 0.5257311121191335
vn 0.723606797749979 -0.44721359549995787 0.5257311121191335
vn 0.723606797749979 -0.447213595499958 0.5257311121191335
vn -0.27639320225002056 -0.4472135954999579 0.85065080835204
vn -0.276393202250021 -0.447213595499958 0.8506508083520398
vn -0.27639320225002095 -0.447213595499958 0.8506508083520399
vn -0.7236067977499789 0.447213595499958 -0.5257311121191336
vn -0.723606797749979 0.4472135954999579 -0.5257311121191335
vn -0.723606797749979 0.44721359549995804 -0.5257311121191336
vn 0.27639320225002073 0.4472135954999579 -0.8506508083520402
vn 0.276393202250021 0.447213595499958 -0.8506508083520399
vn 0.2763932022500209 0.447213595499958 -0.8506508083520399
vn 0.8944271909999159 0.4472135954999579 9.074522733310344e-17
vn 0.8944271909999159 0.4472135954999579 -1.121672696173878e-16
vn 0.894427190999916 0.44721359549995787 0.0
vn 0.2763932022500209 0.44721359549995804 0.85065080835204
vn 0.27639320225002123 0.4472135954999578 0.8506508083520399
vn 0.27639320225002145 0.4472135954999579 0.8506508083520399
vn -0.7236067977499789 0.44721359549995787 0.5257311121191337
vn -0.7236067977499789 0.44721359549995787 0.5257311121191336
vn -0.7236067977499788 0.44721359549995787 0.5257311121191337
vn 0.0 1.0 0.0
vn 0.0 1.0 0.0
vn 0.0 1.0 0.0

f 1/1/1 2/1/1 3/1/1
f 1/1/2 3/1/2 4/1/2
f 1/1/3 4/1/3 5/1/3
f 1/1/4 5/1/4 10/1/4
f 1/1/5 10/1/5 11/1/5
f 1/1/6 11/1/6 6/1/6
f 1/1/7 6/1/7 12/1/7
f 1/1/8 12/1/8 7/1/8
f 1/1/9 7/1/9 2/1/9
f 2/1/10 7/1/10 13/1/10
f 2/1/11 13/1/11 8/1/11
f 2/1/12 8/1/12 3/1/12
f 3/1/13 8/1/13 14/1/13
f 3/1/14 14/1/14 9/1/14
f 3/1/15 9/1/15 4/1/15
f 4/1/16 9/1/16 15/1/16
f 4/1/17 15/1/17 10/1/17
f 4/1/18 10/1/18 5/1/18
f 6/1/19 11/1/19 16/1/19
f 6/1/20 16/1/20 17/1/20
f 6/1/21 17/1/21 12/1/21
f 7/1/22 12/1/22 17/1/22
f 7/1/23 17/1/23 18/1/23
f 7/1/24 18/1/24 13/1/24
f 8/1/25 13/1/25 18/1/25
f 8/1/26 18/1/26 19/1/26
f 8/1/27 19/1/27 14/1/27
f 9/1/28 14/1/28 19/1/28
f 9/1/29 19/1/29 20/1/29
f 9/1/30 20/1/30 15/1/30
f 10/1/31 15/1/31 20/1/31
f 10/1/32 20/1/32 16/1/32
f 10/1/33 16/1/33 11/1/33
f 16/1/34 20/1/34 19/1/34
f 16/1/35 19/1/35 18/1/35
f 16/1/36 18/1/36 17/1/36
