v -1.1102230246251566e-17 0.6314757303333053 2.2204460492503132e-17
v 0.5648090636666386 0.2824045318333193 -4.4408920985006264e-17
v 0.17453559924999307 0.2824045318333193 0.537165340462721
v -0.4569401310833123 0.2824045318333193 0.3319864379843708
v -0.4569401310833123 0.2824045318333193 -0.3319864379843706
v 0.1745355992499929 0.2824045318333193 -0.5371653404627209
v 0.4569401310833123 -0.2824045318333193 0.33198643798437066
v -0.17453559924999296 -0.2824045318333193 0.537165340462721
v -0.5648090636666386 -0.2824045318333193 6.661338147750939e-17
v -0.17453559924999307 -0.2824045318333193 -0.5371653404627209
v 0.4569401310833122 -0.2824045318333193 -0.3319864379843708
v -2.7755575615628914e-17 -0.6314757303333053 1.1102230246251566e-17

vt 0.0 0.0 0.0

vn -0.4911234731884231 -0.7946544722917661 -0.3568220897730898
vn 0.1875924740850799 -0.7946544722917661 -0.5773502691896257
vn 0.6070619982066862 -0.7946544722917661 0.0
vn 0.18759247408508006 -0.7946544722917662 0.5773502691896258
vn -0.491123473188423 -0.7946544722917661 0.35682208977309005
vn -0.7946544722917661 -0.1875924740850799 0.577350269189626
vn -0.982246946376846 0.18759247408507998 7.269740860755545e-17
vn -0.7946544722917662 -0.18759247408507979 -0.5773502691896256
vn -0.3035309991033433 0.18759247408508004 -0.9341723589627157
vn 0.3035309991033431 -0.1875924740850799 -0.9341723589627157
vn 0.7946544722917661 0.1875924740850799 -0.5773502691896258
vn 0.982246946376846 -0.18759247408507995 0.0
vn 0.7946544722917662 0.18759247408507973 0.5773502691896257
vn 0.30353099910334325 -0.18759247408508004 0.9341723589627157
vn -0.30353099910334297 0.1875924740850798 0.9341723589627158
vn -0.6070619982066862 0.7946544722917661 5.075314310096516e-17
vn -0.18759247408508004 0.7946544722917662 -0.5773502691896256
vn 0.491123473188423 0.7946544722917661 -0.3568220897730899
vn 0.4911234731884231 0.7946544722917662 0.3568220897730899
vn -0.1875924740850798 0.7946544722917661 0.5773502691896257

f 1/1/1 2/1/1 3/1/1
f 1/1/2 3/1/2 4/1/2
f 1/1/3 4/1/3 5/1/3
f 1/1/4 5/1/4 6/1/4
f 1/1/5 6/1/5 2/1/5
f 2/1/6 6/1/6 11/1/6
f 2/1/7 11/1/7 7/1/7
f 2/1/8 7/1/8 3/1/8
f 3/1/9 7/1/9 8/1/9
f 3/1/10 8/1/10 4/1/10
f 4/1/11 8/1/11 9/1/11
f 4/1/12 9/1/12 5/1/12
f 5/1/13 9/1/13 10/1/13
f 5/1/14 10/1/14 6/1/14
f 6/1/15 10/1/15 11/1/15
f 7/1/16 11/1/16 12/1/16
f 7/1/17 12/1/17 8/1/17
f 8/1/18 12/1/18 9/1/18
f 9/1/19 12/1/19 10/1/19
f 10/1/20 12/1/20 11/1/20
