v 0.0 1.0 0.0
v 0.8944271909999159 0.4472135954999579 0.0
v 0.27639320225002106 0.4472135954999579 0.8506508083520399
v -0.7236067977499788 0.4472135954999579 0.5257311121191337
v -0.7236067977499789 0.4472135954999579 -0.5257311121191335
v 0.27639320225002084 0.4472135954999579 -0.85065080835204
v 0.7236067977499789 -0.4472135954999579 0.5257311121191336
v -0.27639320225002095 -0.4472135954999579 0.85065080835204
v -0.8944271909999159 -0.4472135954999579 1.0953573965284052e-16
v -0.2763932022500211 -0.4472135954999579 -0.8506508083520399
v 0.7236067977499788 -0.4472135954999579 -0.5257311121191338
v 0.0 -1.0 0.0

vt 0.0 0.0 0.0

vn -0.4911234731884231 -0.7946544722917661 -0.35682208977309
vn 0.18759247408507984 -0.7946544722917661 -0.577350269189626
vn 0.6070619982066863 -0.794654472291766 -5.797786965361282e-17
vn 0.18759247408508 -0.7946544722917661 0.5773502691896258
vn -0.49112347318842303 -0.794654472291766 0.35682208977309005
vn -0.7946544722917661 -0.1875924740850799 -0.5773502691896258
vn 0.303530999103343 -0.18759247408507995 -0.9341723589627157
vn 0.982246946376846 -0.18759247408507998 -1.0371396618888036e-16
vn 0.30353099910334336 -0.18759247408507992 0.9341723589627157
vn -0.794654472291766 -0.18759247408507995 0.5773502691896258
vn -0.9822469463768461 0.18759247408507998 8.696680448041922e-17
vn -0.30353099910334325 0.18759247408507984 -0.9341723589627157
vn 0.7946544722917661 0.18759247408507984 -0.577350269189626
vn 0.7946544722917662 0.18759247408507984 0.5773502691896257
vn -0.3035309991033429 0.18759247408507984 0.9341723589627158
vn -0.6070619982066863 0.7946544722917661 5.797786965361281e-17
vn -0.18759247408507992 0.7946544722917661 -0.5773502691896258
vn 0.49112347318842303 0.7946544722917661 -0.35682208977309005
vn 0.49112347318842314 0.7946544722917661 0.35682208977309
vn -0.18759247408507979 0.7946544722917661 0.577350269189626

f 1/1/1 2/1/1 3/1/1
f 1/1/2 3/1/2 4/1/2
f 1/1/3 4/1/3 5/1/3
f 1/1/4 5/1/4 6/1/4
f 1/1/5 6/1/5 2/1/5
f 2/1/6 7/1/6 3/1/6
f 3/1/7 8/1/7 4/1/7
f 4/1/8 9/1/8 5/1/8
f 5/1/9 10/1/9 6/1/9
f 6/1/10 11/1/10 2/1/10
f 2/1/11 11/1/11 7/1/11
f 3/1/12 7/1/12 8/1/12
f 4/1/13 8/1/13 9/1/13
f 5/1/14 9/1/14 10/1/14
f 6/1/15 10/1/15 11/1/15
f 12/1/16 7/1/16 11/1/16
f 12/1/17 8/1/17 7/1/17
f 12/1/18 9/1/18 8/1/18
f 12/1/19 10/1/19 9/1/19
f 12/1/20 11/1/20 10/1/20
